<svg height="512pt" viewBox="0 -26 512 512" width="512pt" xmlns="http://www.w3.org/2000/svg"><path d="m166.398438 102.398438h179.199218c7.070313 0 12.800782-5.730469 12.800782-12.796876v-25.601562c0-7.070312-5.730469-12.800781-12.800782-12.800781h-38.398437c0-28.277344-22.921875-51.199219-51.199219-51.199219s-51.199219 22.921875-51.199219 51.199219h-38.402343c-7.066407 0-12.800782 5.730469-12.800782 12.800781v25.601562c.003906 7.070313 5.734375 12.796876 12.800782 12.796876zm0 0"/><path d="m204.800781 243.199219c0 21.207031-17.195312 38.402343-38.402343 38.402343-21.207032 0-38.398438-17.195312-38.398438-38.402343s17.191406-38.398438 38.398438-38.398438c21.207031 0 38.402343 17.191407 38.402343 38.398438zm0 0"/><path d="m174.5 307.199219h-16.199219c-29.039062.039062-53.226562 22.269531-55.703125 51.203125h127.601563c-2.476563-28.933594-26.664063-51.164063-55.699219-51.203125zm0 0"/><path d="m499.199219 76.800781h-115.199219v12.800781c-.023438 21.199219-17.203125 38.375-38.398438 38.398438h-179.203124c-21.199219-.023438-38.375-17.203125-38.398438-38.398438v-12.800781h-115.199219c-7.070312 0-12.800781 5.730469-12.800781 12.800781v358.398438c0 7.070312 5.730469 12.800781 12.800781 12.800781h486.398438c7.070312 0 12.800781-5.730469 12.800781-12.800781v-358.398438c0-7.070312-5.730469-12.800781-12.800781-12.800781zm-243.199219 294.398438c0 7.070312-5.730469 12.800781-12.800781 12.800781h-153.597657c-7.070312 0-12.800781-5.730469-12.800781-12.800781v-8.097657c.085938-31.230468 18.042969-59.648437 46.207031-73.136718-25.984374-23.964844-27.621093-64.453125-3.660156-90.4375 23.964844-25.980469 64.453125-27.621094 90.4375-3.65625 25.980469 23.960937 27.621094 64.449218 3.65625 90.433594-1.167968 1.269531-2.390625 2.488281-3.65625 3.660156 28.164063 13.488281 46.125 41.90625 46.214844 73.136718zm166.398438 0h-102.398438c-7.070312 0-12.800781-5.730469-12.800781-12.800781 0-7.066407 5.730469-12.800782 12.800781-12.800782h102.398438c7.070312 0 12.800781 5.734375 12.800781 12.800782 0 7.070312-5.730469 12.800781-12.800781 12.800781zm0-76.796875h-127.996094c-7.070313 0-12.800782-5.734375-12.800782-12.800782 0-7.070312 5.730469-12.800781 12.800782-12.800781h127.996094c7.070312 0 12.800781 5.730469 12.800781 12.800781 0 7.070313-5.730469 12.800782-12.800781 12.800782zm0-76.800782h-127.996094c-7.070313 0-12.800782-5.730468-12.800782-12.800781 0-7.070312 5.730469-12.800781 12.800782-12.800781h127.996094c7.070312 0 12.800781 5.730469 12.800781 12.800781 0 7.070313-5.730469 12.800781-12.800781 12.800781zm0 0"/></svg>